<svg xmlns="http://www.w3.org/2000/svg" width="507.906" height="512" viewBox="0 0 507.906 512">
  <metadata><?xpacket begin="﻿" id="W5M0MpCehiHzreSzNTczkc9d"?>
<x:xmpmeta xmlns:x="adobe:ns:meta/" x:xmptk="Adobe XMP Core 5.6-c138 79.159824, 2016/09/14-01:09:01        ">
   <rdf:RDF xmlns:rdf="http://www.w3.org/1999/02/22-rdf-syntax-ns#">
      <rdf:Description rdf:about=""/>
   </rdf:RDF>
</x:xmpmeta>
                                                                                                    
                                                                                                    
                                                                                                    
                                                                                                    
                                                                                                    
                                                                                                    
                                                                                                    
                                                                                                    
                                                                                                    
                                                                                                    
                                                                                                    
                                                                                                    
                                                                                                    
                                                                                                    
                                                                                                    
                                                                                                    
                                                                                                    
                                                                                                    
                                                                                                    
                                                                                                    
                           
<?xpacket end="w"?></metadata>
<defs>
    <style>
      .cls-1 {
        fill-rule: evenodd;
      }
    </style>
  </defs>
  <path class="cls-1" d="M505.977,80.9c-5.994-23.295-18.52-42.943-36.22-56.823C449.387,8.1,422.977,0,391.26,0H119.74c-31.716,0-58.126,8.1-78.5,24.072C23.543,37.951,11.018,57.6,5.024,80.9-6,123.73,6.892,172.85,33.4,194.885V512H477.605V194.886C504.109,172.851,517,123.73,505.977,80.9Zm-33.4,60.219c-4.308,14.637-11.688,26.021-19.74,30.453l-8.647,4.759V478.609H66.81V176.326l-8.647-4.759c-8.052-4.433-15.432-15.816-19.74-30.453a100.457,100.457,0,0,1-1.04-51.9C41.53,73.091,50,59.65,61.867,50.342,76.211,39.1,95.681,33.391,119.739,33.391H391.26c24.057,0,43.529,5.7,57.874,16.951C461,59.649,469.47,73.09,473.618,89.212A100.422,100.422,0,0,1,472.58,141.114Z" transform="translate(-1.094)"/>
</svg>
