<svg xmlns="http://www.w3.org/2000/svg" width="199.987" height="199.987" viewBox="0 0 512 512">
  <metadata><?xpacket begin="﻿" id="W5M0MpCehiHzreSzNTczkc9d"?>
<x:xmpmeta xmlns:x="adobe:ns:meta/" x:xmptk="Adobe XMP Core 5.6-c138 79.159824, 2016/09/14-01:09:01        ">
   <rdf:RDF xmlns:rdf="http://www.w3.org/1999/02/22-rdf-syntax-ns#">
      <rdf:Description rdf:about=""/>
   </rdf:RDF>
</x:xmpmeta>
                                                                                                    
                                                                                                    
                                                                                                    
                                                                                                    
                                                                                                    
                                                                                                    
                                                                                                    
                                                                                                    
                                                                                                    
                                                                                                    
                                                                                                    
                                                                                                    
                                                                                                    
                                                                                                    
                                                                                                    
                                                                                                    
                                                                                                    
                                                                                                    
                                                                                                    
                                                                                                    
                           
<?xpacket end="w"?></metadata>
<defs>
    <style>
      .cls-1 {
        fill-rule: evenodd;
      }
    </style>
  </defs>
  <path class="cls-1" d="M429.289,134.378c-24.538-38.942-63.561-67.023-111.562-80.366a62.278,62.278,0,0,0-123.454,0c-48,13.343-87.025,41.424-111.562,80.366a92.462,92.462,0,0,0-3.145,183.5L118.161,512H393.84l38.594-194.117A92.462,92.462,0,0,0,429.289,134.378ZM256,33.391a28.867,28.867,0,1,1-28.882,28.866A28.907,28.907,0,0,1,256,33.391ZM145.584,478.609L113.559,317.534c18.776-2.393,31.748-7.777,40.252-12.852a88.092,88.092,0,0,0,16.817,8.95L180.911,478.61H145.584Zm152.034,0H214.384l-9.912-159.037c24.253-.531,41.15-7.975,51.53-14.712,10.379,6.737,27.277,14.181,51.53,14.712Zm68.8,0H331.089l10.283-164.98a88.192,88.192,0,0,0,16.765-8.913c7.765,4.842,27.138,11.178,40.3,12.831Zm53.061-193.191c-33.714,0-46.648-10.759-48.564-12.548l-10.949-17.348L345.554,272.14a51.19,51.19,0,0,1-35.286,14.093c-27.36,0-40.077-12.172-41.6-13.745L256.4,255.9,243.36,272.466c-1.424,1.475-14.13,13.767-41.628,13.767a51.2,51.2,0,0,1-35.259-14.067L153.049,254.69,141.1,272.853c-1.852,1.74-14.759,12.565-48.582,12.565a59.083,59.083,0,1,1,0-118.166h9.808l4.778-8.558c23.426-41.948,60.558-61.873,91.916-71.313a62.274,62.274,0,0,0,113.948,0c31.358,9.44,68.492,29.364,91.916,71.313l4.778,8.558h9.808A59.083,59.083,0,1,1,419.476,285.418Z"/>
</svg>
