<svg xmlns="http://www.w3.org/2000/svg" width="512" height="345" viewBox="0 0 512 345">
  <metadata><?xpacket begin="﻿" id="W5M0MpCehiHzreSzNTczkc9d"?>
<x:xmpmeta xmlns:x="adobe:ns:meta/" x:xmptk="Adobe XMP Core 5.6-c138 79.159824, 2016/09/14-01:09:01        ">
   <rdf:RDF xmlns:rdf="http://www.w3.org/1999/02/22-rdf-syntax-ns#">
      <rdf:Description rdf:about=""/>
   </rdf:RDF>
</x:xmpmeta>
                                                                                                    
                                                                                                    
                                                                                                    
                                                                                                    
                                                                                                    
                                                                                                    
                                                                                                    
                                                                                                    
                                                                                                    
                                                                                                    
                                                                                                    
                                                                                                    
                                                                                                    
                                                                                                    
                                                                                                    
                                                                                                    
                                                                                                    
                                                                                                    
                                                                                                    
                                                                                                    
                           
<?xpacket end="w"?></metadata>
<defs>
    <style>
      .cls-1 {
        fill-rule: evenodd;
      }
    </style>
  </defs>
  <path class="cls-1" d="M465.6,156.9a56.422,56.422,0,0,0-6.507-26.417L512,77.619,488.161,53.8l-52.921,52.88a56.928,56.928,0,0,0-28.4-6.439,224.6,224.6,0,0,0-41.71-28.629l47.826-47.79L389.119,0,331.954,57.122a254.5,254.5,0,0,0-58-12.715C194.729,36.375,116.073,79.033,68.88,121.642,25.106,161.165,0,206.627,0,246.37c0,37.547,15.373,64.723,45.692,80.774C68.706,339.327,100.12,345,144.555,345H361.53c94.743,0,114.63-53.525,114.63-98.427a183.581,183.581,0,0,0-13.978-70.222A56.683,56.683,0,0,0,465.6,156.9Zm-40.469-16.3a23.04,23.04,0,0,1,0,32.6c-23.145,23.127-28.481,39.049-32.767,51.844-2.861,8.538-4.587,13.692-11.736,20.835a43.016,43.016,0,0,1-60.858-60.809c7.148-7.143,12.307-8.869,20.853-11.728,12.8-4.284,28.738-9.615,51.884-32.741A23.109,23.109,0,0,1,425.129,140.6Zm0.006,153.584c-12.935,11.365-34.335,17.127-63.606,17.127H144.555c-38.187,0-65.363-4.559-83.08-13.937-19.2-10.164-27.762-25.895-27.762-51.007,0-29.79,21.6-67.073,57.771-99.735a288.5,288.5,0,0,1,85.065-53.188c32.658-13.083,65.16-18.455,94-15.527,37.62,3.818,71.849,16.429,100.3,36.788q-1.116,1-2.19,2.074C351.129,134.3,340.825,137.75,329.915,141.4c-9.95,3.329-21.228,7.1-33.988,19.852A76.716,76.716,0,0,0,404.462,269.7c12.759-12.749,16.535-24.019,19.867-33.962,2.688-8.024,5.275-15.724,13.443-26.217a149.16,149.16,0,0,1,4.673,37.052C442.446,268.378,436.783,283.952,425.135,294.187ZM166.246,135.894c-18.231,9.9-35.025,23.486-47.29,38.26l25.949,21.507c20.195-24.329,55.136-42.939,77.823-41.532l2.118-33.62C202.446,119.1,180.609,128.1,166.246,135.894Z"/>
</svg>
