<svg xmlns="http://www.w3.org/2000/svg" xmlns:xlink="http://www.w3.org/1999/xlink" width="73.97" height="42.97" viewBox="0 0 73.97 42.97">
  <metadata><?xpacket begin="﻿" id="W5M0MpCehiHzreSzNTczkc9d"?>
<x:xmpmeta xmlns:x="adobe:ns:meta/" x:xmptk="Adobe XMP Core 5.6-c138 79.159824, 2016/09/14-01:09:01        ">
   <rdf:RDF xmlns:rdf="http://www.w3.org/1999/02/22-rdf-syntax-ns#">
      <rdf:Description rdf:about=""/>
   </rdf:RDF>
</x:xmpmeta>
                                                                                                    
                                                                                                    
                                                                                                    
                                                                                                    
                                                                                                    
                                                                                                    
                                                                                                    
                                                                                                    
                                                                                                    
                                                                                                    
                                                                                                    
                                                                                                    
                                                                                                    
                                                                                                    
                                                                                                    
                                                                                                    
                                                                                                    
                                                                                                    
                                                                                                    
                                                                                                    
                           
<?xpacket end="w"?></metadata>
<defs>
    <style>
      .cls-1 {
        fill-rule: evenodd;
        filter: url(#filter);
      }
    </style>
    <filter id="filter" x="1102" y="1153" width="73.97" height="42.97" filterUnits="userSpaceOnUse">
      <feFlood result="flood" flood-color="#fff"/>
      <feComposite result="composite" operator="in" in2="SourceGraphic"/>
      <feBlend result="blend" in2="SourceGraphic"/>
    </filter>
  </defs>
  <path id="Forma_1" data-name="Forma 1" class="cls-1" d="M1102,1182.94v10.78a2.26,2.26,0,0,0,2.27,2.26h60.08a2.26,2.26,0,0,0,2.27-2.26v-10.78a2.262,2.262,0,0,0-2.27-2.27h-60.08A2.268,2.268,0,0,0,1102,1182.94Zm4.54,2.26h55.54v6.25h-55.54v-6.25Zm67.17,10.78a2.266,2.266,0,0,0,2.27-2.26v-11.2a2.27,2.27,0,0,0-4.54,0v11.2A2.26,2.26,0,0,0,1173.71,1195.98Zm-3.68-22.79c0.49,3.71,6.4,3.76,5.91,0-0.76-5.84-3.7-9.31-9.2-11.36-5.59-2.09-12.61-1.69-16.02-7.42-1.95-3.26-7.06-.3-5.11,2.97,2.76,4.63,7.08,6.83,12.15,8.2C1162.52,1166.88,1169.25,1167.12,1170.03,1173.19Z" transform="translate(-1102 -1153)"/>
</svg>
