<svg xmlns="http://www.w3.org/2000/svg" width="373" height="512" viewBox="0 0 373 512">
  <metadata><?xpacket begin="﻿" id="W5M0MpCehiHzreSzNTczkc9d"?>
<x:xmpmeta xmlns:x="adobe:ns:meta/" x:xmptk="Adobe XMP Core 5.6-c138 79.159824, 2016/09/14-01:09:01        ">
   <rdf:RDF xmlns:rdf="http://www.w3.org/1999/02/22-rdf-syntax-ns#">
      <rdf:Description rdf:about=""/>
   </rdf:RDF>
</x:xmpmeta>
                                                                                                    
                                                                                                    
                                                                                                    
                                                                                                    
                                                                                                    
                                                                                                    
                                                                                                    
                                                                                                    
                                                                                                    
                                                                                                    
                                                                                                    
                                                                                                    
                                                                                                    
                                                                                                    
                                                                                                    
                                                                                                    
                                                                                                    
                                                                                                    
                                                                                                    
                                                                                                    
                           
<?xpacket end="w"?></metadata>
<defs>
    <style>
      .cls-1 {
        fill-rule: evenodd;
      }
    </style>
  </defs>
  <path class="cls-1" d="M289.25,59.95H83.765C37.576,59.95,0,94.086,0,136.043V435.915C0,477.869,37.577,512,83.765,512H289.25c46.18,0,83.75-34.132,83.75-76.085V136.044C373,94.086,335.43,59.95,289.25,59.95Zm50.365,375.966c0,23.542-22.593,42.694-50.365,42.694H83.765c-27.78,0-50.381-19.152-50.381-42.694V136.044c0-23.545,22.6-42.7,50.381-42.7H289.25c27.772,0,50.365,19.157,50.365,42.7V435.916ZM45.706,0H327.294V33.391H45.706V0ZM64.159,175.925V387.509h244.7V175.925H64.159ZM275.47,354.119H97.544v-144.8H275.47v144.8Z"/>
</svg>
