<svg xmlns="http://www.w3.org/2000/svg" width="756" height="800" viewBox="0 0 756 800">
  <metadata><?xpacket begin="﻿" id="W5M0MpCehiHzreSzNTczkc9d"?>
<x:xmpmeta xmlns:x="adobe:ns:meta/" x:xmptk="Adobe XMP Core 5.6-c138 79.159824, 2016/09/14-01:09:01        ">
   <rdf:RDF xmlns:rdf="http://www.w3.org/1999/02/22-rdf-syntax-ns#">
      <rdf:Description rdf:about=""/>
   </rdf:RDF>
</x:xmpmeta>
                                                                                                    
                                                                                                    
                                                                                                    
                                                                                                    
                                                                                                    
                                                                                                    
                                                                                                    
                                                                                                    
                                                                                                    
                                                                                                    
                                                                                                    
                                                                                                    
                                                                                                    
                                                                                                    
                                                                                                    
                                                                                                    
                                                                                                    
                                                                                                    
                                                                                                    
                                                                                                    
                           
<?xpacket end="w"?></metadata>
<defs>
    <style>
      .cls-1 {
        fill-rule: evenodd;
      }
    </style>
  </defs>
  <path class="cls-1" d="M575.651,0C476.208,0,395.3,80.913,395.3,180.366V335.8a246.273,246.273,0,1,0,23.074,371.979A180.449,180.449,0,0,0,575.651,800C675.1,800,756,719.087,756,619.634V180.366C756,80.913,675.1,0,575.651,0Zm0,53.245a127.261,127.261,0,0,1,127.11,127.121V373.379H448.541V180.366A127.261,127.261,0,0,1,575.651,53.245ZM382.7,395.3A195.375,195.375,0,0,1,401.276,416.8c0.048,0.058.089,0.118,0.137,0.175a193.108,193.108,0,0,1-1.2,231.157L129.9,377.783A192.964,192.964,0,0,1,382.7,395.3ZM109.767,668.259A193.014,193.014,0,0,1,92.25,415.432L362.567,685.778A192.965,192.965,0,0,1,109.767,668.259Zm465.884,78.5A127.308,127.308,0,0,1,455.626,661.4a246.971,246.971,0,0,0,13.4-234.779H702.761V619.637A127.259,127.259,0,0,1,575.651,746.756Z"/>
</svg>
