<svg xmlns="http://www.w3.org/2000/svg" width="511.813" height="512" viewBox="0 0 511.813 512">
  <metadata><?xpacket begin="﻿" id="W5M0MpCehiHzreSzNTczkc9d"?>
<x:xmpmeta xmlns:x="adobe:ns:meta/" x:xmptk="Adobe XMP Core 5.6-c138 79.159824, 2016/09/14-01:09:01        ">
   <rdf:RDF xmlns:rdf="http://www.w3.org/1999/02/22-rdf-syntax-ns#">
      <rdf:Description rdf:about=""/>
   </rdf:RDF>
</x:xmpmeta>
                                                                                                    
                                                                                                    
                                                                                                    
                                                                                                    
                                                                                                    
                                                                                                    
                                                                                                    
                                                                                                    
                                                                                                    
                                                                                                    
                                                                                                    
                                                                                                    
                                                                                                    
                                                                                                    
                                                                                                    
                                                                                                    
                                                                                                    
                                                                                                    
                                                                                                    
                                                                                                    
                           
<?xpacket end="w"?></metadata>
<defs>
    <style>
      .cls-1 {
        fill-rule: evenodd;
      }
    </style>
  </defs>
  <path class="cls-1" d="M485.7,243.761l-0.015-.016L307.648,65.649C250.029,8.01,161.211.153,95.075,42.06V0h-34.5V60.6H0V95.109H41.986a171.4,171.4,0,0,0,23.64,212.648L243.674,485.868C260.886,503.086,284.443,512,311.742,512a143.336,143.336,0,0,0,29.642-3.244c37.157-7.863,74.911-29.492,106.309-60.9s53.021-69.179,60.881-106.348C517,301.661,508.877,266.95,485.7,243.761ZM220.8,388.124a148.051,148.051,0,0,0-3.058,22.989L90.024,283.353a136.715,136.715,0,0,1,0-193.3c53.273-53.291,139.956-53.292,193.23,0L410.966,217.813a147.838,147.838,0,0,0-22.981,3.059c-37.155,7.863-74.91,29.492-106.309,60.9S228.656,350.954,220.8,388.124ZM474.82,334.361c-6.494,30.708-24.793,62.346-51.523,89.088s-58.357,45.044-89.055,51.541c-28.026,5.932-51.523,1.126-66.173-13.526s-19.45-38.162-13.521-66.2c6.494-30.708,24.793-62.346,51.523-89.088s58.358-45.044,89.056-51.541a108.228,108.228,0,0,1,22.341-2.476c18.127,0,33.278,5.444,43.832,16C475.947,282.819,480.75,306.328,474.82,334.361Zm-22.1-45.908c-8.868-8.872-22.089-12.237-36.266-9.236C404.742,281.7,393,288.353,383.4,297.962c-22.1,22.111-26.279,52.574-9.507,69.354,6.923,6.924,16.169,10.279,26.2,10.278,14.279,0,30.145-6.8,43.128-19.788,9.6-9.608,16.259-21.354,18.738-33.074C464.956,310.545,461.592,297.322,452.724,288.453Zm-33.9,44.946c-9.24,9.244-18.51,10.363-20.514,9.488-0.878-2.012.246-11.279,9.484-20.522S426.3,312,428.307,312.877C429.185,314.888,428.062,324.156,418.822,333.4ZM248.205,100.386c-15.629-12.693-34.045-22.732-51.856-28.268l-10.236,32.96c28.863,8.971,58.031,32.964,65.017,53.486l32.659-11.128C276.73,126.7,260.542,110.407,248.205,100.386Z"/>
</svg>
