<svg xmlns="http://www.w3.org/2000/svg" width="282" height="512" viewBox="0 0 282 512">
  <metadata><?xpacket begin="﻿" id="W5M0MpCehiHzreSzNTczkc9d"?>
<x:xmpmeta xmlns:x="adobe:ns:meta/" x:xmptk="Adobe XMP Core 5.6-c138 79.159824, 2016/09/14-01:09:01        ">
   <rdf:RDF xmlns:rdf="http://www.w3.org/1999/02/22-rdf-syntax-ns#">
      <rdf:Description rdf:about=""/>
   </rdf:RDF>
</x:xmpmeta>
                                                                                                    
                                                                                                    
                                                                                                    
                                                                                                    
                                                                                                    
                                                                                                    
                                                                                                    
                                                                                                    
                                                                                                    
                                                                                                    
                                                                                                    
                                                                                                    
                                                                                                    
                                                                                                    
                                                                                                    
                                                                                                    
                                                                                                    
                                                                                                    
                                                                                                    
                                                                                                    
                           
<?xpacket end="w"?></metadata>
<defs>
    <style>
      .cls-1 {
        fill-rule: evenodd;
      }
    </style>
  </defs>
  <path class="cls-1" d="M261.129,75.312c-10.19-36.169-20.246-63.3-20.668-64.433L236.414,0H45.6L41.556,10.876C41.133,12.012,31.075,39.14,20.88,75.31,7.025,124.466,0,164.838,0,195.3c0,35.448,20.172,70.053,56.8,97.441,21.342,15.957,46.863,28.188,67.5,32.927V478.609H64.888V512H217.111V478.609h-59.4V325.669c20.628-4.739,46.145-16.969,67.483-32.926C261.825,265.354,282,230.749,282,195.3,282,164.838,274.978,124.467,261.129,75.312ZM69.027,33.391H212.989c8.321,24.15,27.7,84.036,33.752,134.254H35.261C41.315,117.427,60.7,57.54,69.027,33.391Zm136.15,232.617c-25.923,19.385-53.615,28.416-64.169,28.416s-38.258-9.031-64.182-28.416C43.6,241.164,35.243,216.369,33.714,201.036H248.29C246.759,216.369,238.4,241.163,205.177,266.008Z"/>
</svg>
