<svg xmlns="http://www.w3.org/2000/svg" width="507.906" height="512" viewBox="0 0 507.906 512"><defs><style>.cls-1{fill-rule:evenodd}</style></defs><path class="cls-1" d="M504.883 80.9c-5.994-23.295-18.52-42.943-36.22-56.823C448.293 8.1 421.883 0 390.166 0h-271.52C86.93 0 60.52 8.1 40.146 24.072 22.449 37.951 9.924 57.6 3.93 80.9c-11.024 42.83 1.868 91.95 28.376 113.985V512h444.205V194.886c26.504-22.035 39.395-71.156 28.372-113.986zm-33.4 60.219c-4.308 14.637-11.688 26.021-19.74 30.453l-8.647 4.759v302.278H65.716V176.326l-8.647-4.759c-8.052-4.433-15.432-15.816-19.74-30.453a100.457 100.457 0 0 1-1.04-51.9c4.147-16.123 12.617-29.564 24.484-38.872C75.117 39.1 94.587 33.391 118.645 33.391h271.521c24.057 0 43.529 5.7 57.874 16.951 11.866 9.307 20.336 22.748 24.484 38.87a100.422 100.422 0 0 1-1.038 51.902z"/></svg>