<svg xmlns="http://www.w3.org/2000/svg" width="373" height="512" viewBox="0 0 373 512"><defs><style>.cls-1{fill-rule:evenodd}</style></defs><path class="cls-1" d="M289.25 59.95H83.765C37.576 59.95 0 94.086 0 136.043v299.872C0 477.869 37.577 512 83.765 512H289.25c46.18 0 83.75-34.132 83.75-76.085V136.044c0-41.958-37.57-76.094-83.75-76.094zm50.365 375.966c0 23.542-22.593 42.694-50.365 42.694H83.765c-27.78 0-50.381-19.152-50.381-42.694V136.044c0-23.545 22.6-42.7 50.381-42.7H289.25c27.772 0 50.365 19.157 50.365 42.7v299.872zM45.706 0h281.588v33.391H45.706V0zm18.453 175.925v211.584h244.7V175.925h-244.7zM275.47 354.119H97.544v-144.8H275.47v144.8z"/></svg>