<svg xmlns="http://www.w3.org/2000/svg" width="282" height="512" viewBox="0 0 282 512"><defs><style>.cls-1{fill-rule:evenodd}</style></defs><path class="cls-1" d="M261.129 75.312c-10.19-36.169-20.246-63.3-20.668-64.433L236.414 0H45.6l-4.044 10.876C41.133 12.012 31.075 39.14 20.88 75.31 7.025 124.466 0 164.838 0 195.3c0 35.448 20.172 70.053 56.8 97.441 21.342 15.957 46.863 28.188 67.5 32.927v152.941H64.888V512h152.223v-33.391h-59.4v-152.94c20.628-4.739 46.145-16.969 67.483-32.926C261.825 265.354 282 230.749 282 195.3c0-30.462-7.022-70.833-20.871-119.988zM69.027 33.391h143.962c8.321 24.15 27.7 84.036 33.752 134.254H35.261C41.315 117.427 60.7 57.54 69.027 33.391zm136.15 232.617c-25.923 19.385-53.615 28.416-64.169 28.416s-38.258-9.031-64.182-28.416c-33.226-24.844-41.583-49.639-43.112-64.972H248.29c-1.531 15.333-9.89 40.127-43.113 64.972z"/></svg>